<?xml version="1.0" ?><!DOCTYPE svg  PUBLIC '-//W3C//DTD SVG 1.1//EN'  'http://www.w3.org/Graphics/SVG/1.1/DTD/svg11.dtd'><svg height="100%" style="fill-rule:evenodd;clip-rule:evenodd;stroke-linejoin:round;stroke-miterlimit:2;" version="1.1" viewBox="0 0 32 32" width="100%" xml:space="preserve" xmlns="http://www.w3.org/2000/svg" xmlns:serif="http://www.serif.com/" xmlns:xlink="http://www.w3.org/1999/xlink"><path d="M19.005,22.551c0.028,2.195 1.785,3.449 3.995,3.449c2.224,0 3.999,-1.271 4.005,-3.492c0.056,-1.643 1.995,-7.75 1.995,-10.509c0,-1.507 -0.737,-3.013 -1.862,-4.138c-1.124,-1.125 -2.631,-1.862 -4.138,-1.862c-3.022,-0 -5.5,2.979 -5.5,6c-0,2.763 1.451,8.882 1.503,10.517c-0,0.012 0.001,0.024 0.002,0.035Zm-16.005,-10.558c-0.009,0.32 0.142,1.24 0.388,2.425c0.565,2.721 1.574,6.968 1.61,8.099l0.002,0c0.009,2.216 1.782,3.483 4.003,3.483c2.225,-0 3.992,-1.269 3.997,-3.491c0.056,-1.642 1.5,-7.749 1.5,-10.509c0,-3.021 -2.478,-6.001 -5.5,-6.001c-1.507,-0 -3.014,0.737 -4.138,1.862c-1.124,1.124 -1.86,2.628 -1.862,4.132l0,-0Zm23.005,10.485c0.055,-1.635 1.995,-7.727 1.995,-10.479c0,-1.253 -0.633,-2.496 -1.569,-3.431c-0.935,-0.936 -2.178,-1.569 -3.431,-1.569c-2.497,-0 -4.5,2.503 -4.5,5c-0,2.725 1.419,8.724 1.5,10.431c0.003,0.022 0.005,0.045 0.005,0.069c-0,1.636 1.359,2.501 2.995,2.501c1.637,0 3.005,-0.865 3.005,-2.501l0,-0.021Zm-14.005,0.022c-0,-0.005 0,-0.011 0,-0.016c0.052,-1.628 1.5,-7.729 1.5,-10.484c0,-2.497 -2.003,-5.001 -4.5,-5.001c-1.253,-0 -2.496,0.634 -3.431,1.569c-0.935,0.936 -1.569,2.18 -1.569,3.432c-0,0.021 -0.001,0.041 -0.004,0.061c-0.028,0.226 0.144,1.056 0.371,2.154c0.568,2.735 1.562,6.982 1.628,8.214c0.003,0.023 0.005,0.047 0.005,0.071c-0,1.636 1.367,2.5 3.003,2.5c1.637,-0 2.997,-0.864 2.997,-2.5l0,0Zm-3,-10.321c0.32,0.632 0.781,1.454 1.304,2.108c0.488,0.61 1.043,1.067 1.577,1.198c0.268,0.066 0.539,-0.099 0.604,-0.367c0.066,-0.268 -0.098,-0.539 -0.366,-0.604c-0.172,-0.042 -0.339,-0.152 -0.507,-0.294c-0.318,-0.27 -0.622,-0.655 -0.897,-1.065c-0.692,-1.029 -1.199,-2.216 -1.249,-2.336c-0.048,-0.122 -0.144,-0.226 -0.274,-0.28c-0.255,-0.106 -0.548,0.015 -0.654,0.27c0,-0 -0.524,1.261 -1.253,2.346c-0.276,0.41 -0.579,0.795 -0.898,1.065c-0.167,0.142 -0.335,0.252 -0.506,0.294c-0.268,0.065 -0.432,0.336 -0.367,0.604c0.066,0.268 0.337,0.433 0.605,0.367c0.534,-0.131 1.088,-0.588 1.577,-1.198c0.523,-0.654 0.984,-1.476 1.304,-2.108Zm13.976,0.048c0.389,0.885 0.567,1.108 1.328,2.06c0.489,0.61 1.043,1.067 1.577,1.198c0.268,0.066 0.539,-0.099 0.605,-0.367c0.065,-0.268 -0.099,-0.539 -0.367,-0.604c-0.171,-0.042 -0.339,-0.152 -0.506,-0.294c-0.319,-0.27 -0.622,-0.655 -0.898,-1.065c-0.727,-1.082 -0.729,-1.085 -1.248,-2.334c-0.048,-0.123 -0.144,-0.227 -0.275,-0.282c-0.255,-0.106 -0.548,0.015 -0.653,0.27c-0,-0 -0.524,1.261 -1.254,2.346c-0.275,0.41 -0.579,0.795 -0.897,1.065c-0.168,0.142 -0.335,0.252 -0.507,0.294c-0.268,0.065 -0.432,0.336 -0.366,0.604c0.065,0.268 0.336,0.433 0.604,0.367c0.534,-0.131 1.089,-0.588 1.577,-1.198c0.51,-0.637 0.961,-1.434 1.28,-2.06Z" id="Sandals"/></svg>